<svg id="Layer_1" enable-background="new 0 0 513.52 513.52" height="512" viewBox="0 0 513.52 513.52" width="512" xmlns="http://www.w3.org/2000/svg"><path d="m256.76 108.63c-33.477 0-60.712 27.235-60.712 60.712v54.396c0 8.837 7.163 16 16 16h89.424c8.837 0 16-7.163 16-16v-54.396c0-33.476-27.236-60.712-60.712-60.712z" fill="#8bc4ff"/><path d="m256.76 97.399c26.675 0 48.377-21.702 48.377-48.378 0-26.675-21.702-48.377-48.377-48.377s-48.377 21.702-48.377 48.377c0 26.676 21.702 48.378 48.377 48.378z" fill="#f4dc4d"/><path d="m60.712 381.768c-33.477 0-60.712 27.235-60.712 60.712v54.396c0 8.837 7.163 16 16 16h89.423c8.837 0 16-7.163 16-16v-54.396c0-33.477-27.235-60.712-60.711-60.712z" fill="#a0ed83"/><path d="m60.712 370.536c26.675 0 48.377-21.702 48.377-48.377 0-26.676-21.702-48.378-48.377-48.378-26.676 0-48.378 21.702-48.378 48.378 0 26.674 21.702 48.377 48.378 48.377z" fill="#f4dc4d"/><path d="m452.808 381.768c-33.477 0-60.711 27.235-60.711 60.712v54.396c0 8.837 7.163 16 16 16h89.423c8.837 0 16-7.163 16-16v-54.396c0-33.477-27.236-60.712-60.712-60.712z" fill="#ed4040"/><path d="m452.808 370.536c26.676 0 48.378-21.702 48.378-48.377 0-26.676-21.702-48.378-48.378-48.378-26.675 0-48.377 21.702-48.377 48.378 0 26.674 21.702 48.377 48.377 48.377z" fill="#f4dc4d"/><path d="m341.165 408.492-68.405-43.567v-69.492c0-8.837-7.163-16-16-16s-16 7.163-16 16v69.492l-68.405 43.567c-7.477 4.761-9.634 14.66-4.9 22.09 4.746 7.454 14.635 9.648 22.09 4.9l67.216-42.809c71.687 45.656 69.208 45.315 75.795 45.315 15.9.001 22.112-20.897 8.609-29.496z" fill="#7f7f7f"/></svg>