<svg id="flat" height="512" viewBox="0 0 512 512" width="512" xmlns="http://www.w3.org/2000/svg"><g fill="#d1e4ff"><path d="m256 64h72v16h-72z"/><path d="m344 64h16v16h-16z"/><path d="m256 112h64v16h-64z"/><path d="m336 112h16v16h-16z"/><path d="m256 88h96v16h-96z"/><path d="m368 88h40v16h-40z"/></g><path d="m184 168h304v280h-304z" fill="#548aff"/><circle cx="128" cy="440" fill="#e0edff" r="16"/><path d="m128 464a24 24 0 1 1 24-24 24.0275 24.0275 0 0 1 -24 24zm0-32a8 8 0 1 0 8 8 8.00917 8.00917 0 0 0 -8-8z" fill="#718799"/><circle cx="216" cy="440" fill="#e0edff" r="16"/><path d="m216 464a24 24 0 1 1 24-24 24.0275 24.0275 0 0 1 -24 24zm0-32a8 8 0 1 0 8 8 8.00917 8.00917 0 0 0 -8-8z" fill="#718799"/><path d="m232 376 32-104h-192l32 104z" fill="#ffc431"/><path d="m244 424h-156v-16h156a12 12 0 0 0 0-24h-140a8.00052 8.00052 0 0 1 -7.63574-5.61426l-38.2461-122.38574h-42.11816v-16h48a8.00052 8.00052 0 0 1 7.63574 5.61426l38.2461 122.38574h134.11816a28 28 0 0 1 0 56z" fill="#ffe28f"/><path d="m296 64h-128a32 32 0 0 0 -32 32v144h-24l56 56 56-56h-24v-112h64z" fill="#f5714f"/><path d="m288 168v88l24-24 24 24 24-24 24 24v-88z" fill="#7dafff"/><path d="m336 320h120v96h-120z" fill="#91c0ff"/><path d="m376 344h56v16h-56z" fill="#7dafff"/><path d="m360 376h32v16h-32z" fill="#7dafff"/><path d="m408 376h24v16h-24z" fill="#7dafff"/></svg>