<?xml version="1.0"?>
<svg xmlns="http://www.w3.org/2000/svg" xmlns:xlink="http://www.w3.org/1999/xlink" version="1.1" x="0px" y="0px" viewBox="0 0 36 36" enable-background="new 0 0 36 36" xml:space="preserve" width="512" height="512"><g id="bg"><g><path fill="#EFEFEF" d="M8.114,5.564C6.309,12.241,1.61,15.891,0.74,19.109s-0.847,10.475,13.955,14.477    s19.432-4.501,20.388-8.041C39.564,8.973,11.311-6.262,8.114,5.564z"/></g></g><g id="effect"><g><g><rect x="6.774" y="3.177" transform="matrix(0.7071 -0.7071 0.7071 0.7071 -0.323 6.5737)" fill="#A4AFC1" width="2" height="1"/></g><g><rect x="2.707" y="7.243" transform="matrix(0.7071 -0.7071 0.7071 0.7071 -4.3889 4.8896)" fill="#A4AFC1" width="2.001" height="1"/></g><g><rect x="3.208" y="2.5" transform="matrix(0.707 -0.7072 0.7072 0.707 -1.3889 3.6478)" fill="#A4AFC1" width="1" height="2"/></g></g><g><path fill="#A4AFC1" d="M33.25,17.25c-0.827,0-1.5-0.673-1.5-1.5s0.673-1.5,1.5-1.5s1.5,0.673,1.5,1.5S34.077,17.25,33.25,17.25z     M33.25,15.25c-0.276,0-0.5,0.225-0.5,0.5s0.224,0.5,0.5,0.5s0.5-0.225,0.5-0.5S33.526,15.25,33.25,15.25z"/></g></g><g id="color"><g><path fill="#2FDF84" d="M28.25,11.25h-12.5c-0.552,0-1-0.448-1-1v-2.5c0-0.552,0.448-1,1-1h12.5c0.552,0,1,0.448,1,1v2.5    C29.25,10.802,28.802,11.25,28.25,11.25z"/></g><g><path fill="#2FDF84" d="M9,11.25L9,11.25c-1.243,0-2.25-1.007-2.25-2.25v0c0-1.243,1.007-2.25,2.25-2.25h0    c1.243,0,2.25,1.007,2.25,2.25v0C11.25,10.243,10.243,11.25,9,11.25z"/></g><g><path fill="#2FDF84" d="M27,20.25L27,20.25c1.243,0,2.25-1.007,2.25-2.25v0c0-1.243-1.007-2.25-2.25-2.25h0    c-1.243,0-2.25,1.007-2.25,2.25v0C24.75,19.243,25.757,20.25,27,20.25z"/></g><g><path fill="#2FDF84" d="M27,29.25L27,29.25c1.243,0,2.25-1.007,2.25-2.25v0c0-1.243-1.007-2.25-2.25-2.25h0    c-1.243,0-2.25,1.007-2.25,2.25v0C24.75,28.243,25.757,29.25,27,29.25z"/></g><g><path fill="#F3F3F1" d="M20.25,29.25H7.75c-0.552,0-1-0.448-1-1v-12.5c0-0.552,0.448-1,1-1h12.5c0.552,0,1,0.448,1,1v12.5    C21.25,28.802,20.802,29.25,20.25,29.25z"/></g></g><g id="shadow"><g><path fill="#00B871" d="M17,10.25v-2.5c0-0.552,0.448-1,1-1h-2.25c-0.552,0-1,0.448-1,1v2.5c0,0.552,0.448,1,1,1H18    C17.448,11.25,17,10.802,17,10.25z"/></g><g><path fill="#00B871" d="M9,9c0-0.831,0.455-1.548,1.125-1.938C9.793,6.869,9.412,6.75,9,6.75C7.757,6.75,6.75,7.757,6.75,9    S7.757,11.25,9,11.25c0.412,0,0.793-0.119,1.125-0.312C9.455,10.548,9,9.831,9,9z"/></g><g><path fill="#00B871" d="M27,18c0-0.831,0.455-1.548,1.125-1.938C27.793,15.869,27.412,15.75,27,15.75    c-1.243,0-2.25,1.007-2.25,2.25s1.007,2.25,2.25,2.25c0.412,0,0.793-0.119,1.125-0.312C27.455,19.548,27,18.831,27,18z"/></g><g><path fill="#00B871" d="M27,27c0-0.831,0.455-1.548,1.125-1.938C27.793,24.869,27.412,24.75,27,24.75    c-1.243,0-2.25,1.007-2.25,2.25s1.007,2.25,2.25,2.25c0.412,0,0.793-0.119,1.125-0.312C27.455,28.548,27,27.831,27,27z"/></g><g><path fill="#D5DBE1" d="M9,28.25v-12.5c0-0.552,0.448-1,1-1H7.75c-0.552,0-1,0.448-1,1v12.5c0,0.552,0.448,1,1,1H10    C9.448,29.25,9,28.802,9,28.25z"/></g></g><g id="regular"><g><path d="M28.25,12h-12.5C14.785,12,14,11.215,14,10.25v-2.5C14,6.785,14.785,6,15.75,6h12.5C29.215,6,30,6.785,30,7.75v2.5    C30,11.215,29.215,12,28.25,12z M15.75,7.5c-0.138,0-0.25,0.112-0.25,0.25v2.5c0,0.138,0.112,0.25,0.25,0.25h12.5    c0.138,0,0.25-0.112,0.25-0.25v-2.5c0-0.138-0.112-0.25-0.25-0.25H15.75z"/></g><g><path d="M9,12c-1.654,0-3-1.346-3-3s1.346-3,3-3s3,1.346,3,3S10.654,12,9,12z M9,7.5C8.173,7.5,7.5,8.173,7.5,9s0.673,1.5,1.5,1.5    s1.5-0.673,1.5-1.5S9.827,7.5,9,7.5z"/></g><g><path d="M27,21c-1.654,0-3-1.346-3-3s1.346-3,3-3s3,1.346,3,3S28.654,21,27,21z M27,16.5c-0.827,0-1.5,0.673-1.5,1.5    s0.673,1.5,1.5,1.5s1.5-0.673,1.5-1.5S27.827,16.5,27,16.5z"/></g><g><path d="M27,30c-1.654,0-3-1.346-3-3s1.346-3,3-3s3,1.346,3,3S28.654,30,27,30z M27,25.5c-0.827,0-1.5,0.673-1.5,1.5    s0.673,1.5,1.5,1.5s1.5-0.673,1.5-1.5S27.827,25.5,27,25.5z"/></g><g><path d="M20.25,30H7.75C6.785,30,6,29.215,6,28.25v-12.5C6,14.785,6.785,14,7.75,14h12.5c0.965,0,1.75,0.785,1.75,1.75v12.5    C22,29.215,21.215,30,20.25,30z M7.75,15.5c-0.138,0-0.25,0.112-0.25,0.25v12.5c0,0.138,0.112,0.25,0.25,0.25h12.5    c0.138,0,0.25-0.112,0.25-0.25v-12.5c0-0.138-0.112-0.25-0.25-0.25H7.75z"/></g><g><rect x="13.25" y="12.157" transform="matrix(0.7071 -0.7071 0.7071 0.7071 -11.4558 16.3431)" width="1.5" height="19.686"/></g><g><rect x="4.157" y="21.25" transform="matrix(0.7071 -0.7071 0.7071 0.7071 -11.4558 16.3431)" width="19.686" height="1.5"/></g></g></svg>
